<?xml version="1.0" encoding="utf-8"?>
<!-- Generator: Adobe Illustrator 23.0.0, SVG Export Plug-In . SVG Version: 6.00 Build 0)  -->
<svg version="1.1" id="Layer_1" xmlns="http://www.w3.org/2000/svg" xmlns:xlink="http://www.w3.org/1999/xlink" x="0px" y="0px"
	 viewBox="0 0 4000 4000" style="enable-background:new 0 0 4000 4000;" xml:space="preserve">
<path d="M2945.51,2728.67l-1909.45,0.76c-27.52,0.04-49.3,22.48-48.37,49.9c0.93,27.42,24.26,49.85,51.8,49.84l1909.4-0.82
	c27.6,0.02,49.36-22.44,48.42-49.86C2996.39,2751.09,2973.07,2728.65,2945.51,2728.67z M2888.34,2502.8l-1798.47,0.72l6.82,199.48
	l1798.47-0.76L2888.34,2502.8z M1193.15,2662c-31.24-0.02-57.44-25.96-58.56-58.02c-1.11-32.02,23.36-57.99,54.59-58.01
	c31.23-0.03,57.39,25.91,58.51,57.97C1248.79,2635.99,1224.38,2661.97,1193.15,2662z M1460.28,2661.87
	c-31.23,0.03-57.46-25.93-58.57-58c-1.08-32.01,23.36-57.99,54.6-58.02c31.21-0.01,57.43,25.96,58.54,57.99
	C1515.94,2635.87,1491.47,2661.84,1460.28,2661.87z M1727.36,2661.74c-31.19,0.03-57.39-25.93-58.49-57.95
	c-1.1-32.03,23.32-58.03,54.54-58.05c31.25,0,57.45,25.95,58.54,58C1783.04,2635.78,1758.61,2661.74,1727.36,2661.74z
	 M1994.51,2661.63c-31.24,0-57.42-25.93-58.51-57.97c-1.1-32.04,23.31-58.02,54.55-58.02c31.24,0,57.45,25.94,58.52,57.97
	C2050.19,2635.66,2025.75,2661.63,1994.51,2661.63z M2261.65,2661.54c-31.21,0-57.44-25.96-58.5-58
	c-1.11-32.02,23.33-58,54.55-58.01c31.22-0.02,57.44,25.95,58.51,57.97C2317.3,2635.54,2292.87,2661.51,2261.65,2661.54z
	 M2528.78,2661.4c-31.23,0.03-57.46-25.93-58.54-57.95c-1.1-32.04,23.35-58.03,54.57-58.03c31.25-0.01,57.44,25.95,58.55,57.97
	C2584.45,2635.44,2559.99,2661.4,2528.78,2661.4z M2795.91,2661.3c-31.22,0.02-57.43-25.91-58.52-57.96
	c-1.12-32.05,23.35-58.02,54.56-58.02c31.22-0.02,57.47,25.96,58.52,57.97C2851.57,2635.31,2827.16,2661.31,2795.91,2661.3z
	 M3117.77,1437.76c-36.58,0-66.23,29.65-66.23,66.23c0,21.3,10.23,40.05,25.86,52.16l-235.37,411.29
	c-5.69,10.01-16.82,14.84-28.4,12.28c-11.54-2.54-20.01-11.67-21.65-23.29l-62.92-453.82c4.34,0.89,8.83,1.37,13.43,1.37
	c36.58,0,66.23-29.65,66.23-66.23c0-36.57-29.65-66.23-66.23-66.23c-36.58,0-66.23,29.66-66.23,66.23
	c0,22.68,11.43,42.66,28.81,54.6l-204.69,412.08c-18.18,36.51-53.44,57.64-94.96,56.76c-41.53-0.85-77.34-23.46-96.42-60.69
	l-307.16-597.81v-0.37c32.11-4.57,56.88-31.92,56.88-65.28c0-36.58-29.65-66.23-66.23-66.23c-36.57,0-66.23,29.65-66.23,66.23
	c0,33.37,24.77,60.71,56.88,65.28v0.37l-307.16,597.81c-19.08,37.24-54.89,59.84-96.42,60.69c-41.51,0.88-76.78-20.26-94.96-56.76
	l-205.05-412.8c16.86-12.01,27.94-31.61,27.94-53.88c0-36.57-29.65-66.23-66.23-66.23c-36.58,0-66.23,29.66-66.23,66.23
	c0,36.58,29.65,66.23,66.23,66.23c5.07,0,9.96-0.69,14.71-1.77l-62.98,454.22c-1.64,11.62-10.1,20.75-21.65,23.29
	c-11.58,2.55-22.71-2.28-28.4-12.28l-231.41-404.37c21.78-10.84,36.88-33.1,36.88-59.08c0-36.58-29.65-66.23-66.23-66.23
	c-36.58,0-66.23,29.65-66.23,66.23c0,36.58,29.65,66.23,66.23,66.23c0.46,0,0.88-0.12,1.34-0.13l103.81,528.92l78.77,377.23
	l917.03,0.38v0.01h18.69v-0.01l917.03-0.38l78.77-377.23l104.2-530.93c5.13,1.27,10.4,2.14,15.93,2.14
	c36.58,0,66.23-29.65,66.23-66.23C3184,1467.41,3154.35,1437.76,3117.77,1437.76z M2852.63,2408.57l-839.38,0.26v0.01h-26.59v-0.01
	l-839.38-0.26l-130.78-518.38h17.69L1238.45,2189c5.13,6.96,15.17,10.31,25.6,8.54c10.41-1.76,18.04-8.11,19.52-16.18l58.62-325.66
	h17.52l186.72,289.56c16.38,25.35,48.18,40.02,85.6,39.42c37.44-0.6,69.72-16.29,86.92-42.15l267.71-401.35h26.59l267.71,401.35
	c17.2,25.86,49.48,41.55,86.92,42.15c37.42,0.6,69.21-14.06,85.6-39.42l186.72-289.56h17.52l58.62,325.66
	c1.48,8.07,9.11,14.42,19.52,16.18c10.44,1.77,20.47-1.58,25.6-8.54l204.27-298.81h17.69L2852.63,2408.57z"/>
</svg>
